<svg width="821" height="330" viewBox="0 0 821 330" fill="none" xmlns="http://www.w3.org/2000/svg">
<path d="M562.407 151.327L528.251 143.687M562.407 151.327L560.212 189.775M562.407 151.327L558.741 96.7096M528.251 143.687L504.554 122.503L491.001 99.4899L338.095 116.524L313.364 136.61M528.251 143.687L500.558 207.941M313.364 136.61L275.603 147.377M313.364 136.61L294.405 178.993M275.603 147.377L249.235 194.251L321.778 228.41M275.603 147.377L294.405 178.993M321.778 228.41L294.405 178.993M321.778 228.41L394.45 189.843L500.558 207.941M500.558 207.941L551.548 199.877L560.212 189.775M560.212 189.775L608.168 179.239M157.024 186.178L171.29 164.776L197.729 164.542L221.943 145.621L245.274 118.049L326.449 106.746L472.125 81.9465L558.741 96.7096M157.024 186.178L196.377 200.36L205.064 213.063M157.024 186.178L154.193 155.316L165.052 106.766M205.064 213.063L252.626 232.924M205.064 213.063L231.461 242.792L255.268 244.018M252.626 232.924L340.221 265.07L591.081 201.803L608.168 179.239M252.626 232.924L255.268 244.018M608.168 179.239L635.538 172.552M635.538 172.552L665.331 158.466M635.538 172.552L577.675 111.704M665.331 158.466L629.326 135.042L623.541 121.963L577.675 111.704M665.331 158.466L678.011 165.913L681.931 155.262M665.331 158.466L681.931 155.262M577.675 111.704L558.741 96.7096M517.116 254.171L451.706 277.454L393.641 264.466L312.142 294.398L288.576 276.062M517.116 254.171L524.852 267.685L611.128 254.193L617.568 225.404M517.116 254.171L617.568 225.404M617.568 225.404L684.393 237.021L697.227 211.712L748.249 200.069L727.473 184.15M727.473 184.15L798.542 147.018L789.656 101.992L769.436 76.7191L705.791 58.8966L638.003 57.3111L598.162 62.4893M727.473 184.15L740.082 144.957M598.162 62.4893L527.317 35.6271L502.307 42.0732L405.973 53.5724M598.162 62.4893L650.038 80.2411M405.973 53.5724L283.092 65.7939M405.973 53.5724L500.875 57.636L575.171 79.3779L650.038 80.2411M283.092 65.7939L229.669 68.7026L211.535 83.3473M283.092 65.7939L341.889 78.9456L414.548 69.0677M211.535 83.3473L162.677 79.5917L165.052 106.766M211.535 83.3473L165.052 106.766M165.052 106.766L94.8336 117.189M165.052 106.766L131.558 188.936M94.8336 117.189L34.2518 139.503L7.42184 226.238L36.4319 229.397M94.8336 117.189L112.849 168.356L131.558 188.936M94.8336 117.189L92.317 152.491L61.0696 178.805M36.4319 229.397L128.133 234.025M36.4319 229.397L61.0696 178.805M128.133 234.025L145.998 257.235L215.414 277.885M128.133 234.025L61.0696 178.805M128.133 234.025L174.247 242.035M215.414 277.885L288.576 276.062M215.414 277.885L174.247 242.035M288.576 276.062L255.268 244.018M131.558 188.936L174.247 242.035M740.082 144.957L705.419 112.098M740.082 144.957L757.009 101.351L736.612 86.0286M705.419 112.098L652.766 106.982M705.419 112.098L736.612 86.0286M652.766 106.982L650.038 80.2411M652.766 106.982L681.741 135.494L681.931 155.262M736.612 86.0286L702.315 82.4559" stroke="#4C566A" stroke-opacity="0.56" stroke-width="0.5"/>
<ellipse cx="406.818" cy="167.76" rx="52.75" ry="51.25" transform="rotate(12.6083 406.818 167.76)" fill="#8FBCBB"/>
<circle cx="412.012" cy="176.608" r="36.75" transform="rotate(12.6083 412.012 176.608)" fill="#7CA6A5" fill-opacity="0.5"/>
<circle cx="288.114" cy="276.983" r="7.75" transform="rotate(12.6083 288.114 276.983)" fill="#788EA9"/>
<circle cx="287.815" cy="277.172" r="4.5" transform="rotate(12.6083 287.815 277.172)" fill="#476385" fill-opacity="0.5"/>
<ellipse cx="311.628" cy="293.258" rx="5.25" ry="5" transform="rotate(12.6083 311.628 293.258)" fill="#788EA9"/>
<ellipse cx="311.428" cy="293.379" rx="3.04839" ry="2.90323" transform="rotate(12.6083 311.428 293.379)" fill="#476385" fill-opacity="0.5"/>
<ellipse cx="450.865" cy="277.778" rx="5.25" ry="5" transform="rotate(12.6083 450.865 277.778)" fill="#788EA9"/>
<ellipse cx="450.665" cy="277.899" rx="3.04839" ry="2.90323" transform="rotate(12.6083 450.665 277.899)" fill="#476385" fill-opacity="0.5"/>
<ellipse cx="524.095" cy="266.491" rx="5.25" ry="5" transform="rotate(12.6083 524.095 266.491)" fill="#788EA9"/>
<ellipse cx="523.894" cy="266.611" rx="3.04839" ry="2.90323" transform="rotate(12.6083 523.894 266.611)" fill="#476385" fill-opacity="0.5"/>
<ellipse cx="619.115" cy="224.213" rx="5.25" ry="5" transform="rotate(12.6083 619.115 224.213)" fill="#788EA9"/>
<ellipse cx="618.914" cy="224.333" rx="3.04839" ry="2.90323" transform="rotate(12.6083 618.914 224.333)" fill="#476385" fill-opacity="0.5"/>
<ellipse cx="591" cy="201.017" rx="5.25" ry="5" transform="rotate(12.6083 591 201.017)" fill="#81A1C1"/>
<ellipse cx="590.8" cy="201.137" rx="3.04839" ry="2.90323" transform="rotate(12.6083 590.8 201.137)" fill="#637F9A" fill-opacity="0.5"/>
<ellipse cx="560.375" cy="189.043" rx="5.25" ry="5" transform="rotate(12.6083 560.375 189.043)" fill="#88C0D0"/>
<ellipse cx="560.175" cy="189.163" rx="3.04839" ry="2.90323" transform="rotate(12.6083 560.175 189.163)" fill="#6A9AA8" fill-opacity="0.5"/>
<ellipse cx="577.351" cy="110.863" rx="5.25" ry="5" transform="rotate(12.6083 577.351 110.863)" fill="#81A1C1"/>
<ellipse cx="577.15" cy="110.983" rx="3.04839" ry="2.90323" transform="rotate(12.6083 577.15 110.983)" fill="#637F9A" fill-opacity="0.5"/>
<ellipse cx="681.443" cy="135.683" rx="5.25" ry="5" transform="rotate(12.6083 681.443 135.683)" fill="#788EA9"/>
<ellipse cx="681.242" cy="135.804" rx="3.04839" ry="2.90323" transform="rotate(12.6083 681.242 135.804)" fill="#476385" fill-opacity="0.5"/>
<ellipse cx="677.713" cy="166.103" rx="5.25" ry="5" transform="rotate(12.6083 677.713 166.103)" fill="#788EA9"/>
<ellipse cx="677.512" cy="166.223" rx="3.04839" ry="2.90323" transform="rotate(12.6083 677.512 166.223)" fill="#476385" fill-opacity="0.5"/>
<ellipse cx="740.002" cy="144.171" rx="5.25" ry="5" transform="rotate(12.6083 740.002 144.171)" fill="#788EA9"/>
<ellipse cx="739.802" cy="144.291" rx="3.04839" ry="2.90323" transform="rotate(12.6083 739.802 144.291)" fill="#476385" fill-opacity="0.5"/>
<ellipse cx="748.278" cy="198.795" rx="5.25" ry="5" transform="rotate(12.6083 748.278 198.795)" fill="#788EA9"/>
<ellipse cx="748.078" cy="198.915" rx="3.04839" ry="2.90323" transform="rotate(12.6083 748.078 198.915)" fill="#788EA9"/>
<ellipse cx="748.078" cy="198.915" rx="3.04839" ry="2.90323" transform="rotate(12.6083 748.078 198.915)" fill="#476385" fill-opacity="0.5"/>
<ellipse cx="337.906" cy="116.225" rx="5.25" ry="5" transform="rotate(12.6083 337.906 116.225)" fill="#88C0D0"/>
<ellipse cx="337.705" cy="116.345" rx="3.04839" ry="2.90323" transform="rotate(12.6083 337.705 116.345)" fill="#6A9AA8" fill-opacity="0.5"/>
<ellipse cx="502.605" cy="41.8838" rx="5.25" ry="5" transform="rotate(12.6083 502.605 41.8838)" fill="#788EA9"/>
<ellipse cx="502.405" cy="42.0042" rx="3.04839" ry="2.90323" transform="rotate(12.6083 502.405 42.0042)" fill="#476385" fill-opacity="0.5"/>
<ellipse cx="525.5" cy="35.7331" rx="5.25" ry="5" transform="rotate(12.6083 525.5 35.7331)" fill="#788EA9"/>
<ellipse cx="525.299" cy="35.8535" rx="3.04839" ry="2.90323" transform="rotate(12.6083 525.299 35.8535)" fill="#476385" fill-opacity="0.5"/>
<ellipse cx="414.333" cy="67.7387" rx="5.25" ry="5" transform="rotate(12.6083 414.333 67.7387)" fill="#788EA9"/>
<ellipse cx="414.132" cy="67.8591" rx="3.04839" ry="2.90323" transform="rotate(12.6083 414.132 67.8591)" fill="#476385" fill-opacity="0.5"/>
<ellipse cx="340.141" cy="264.283" rx="5.25" ry="5" transform="rotate(12.6083 340.141 264.283)" fill="#81A1C1"/>
<ellipse cx="339.94" cy="264.404" rx="3.04839" ry="2.90323" transform="rotate(12.6083 339.94 264.404)" fill="#637F9A" fill-opacity="0.5"/>
<ellipse cx="256.054" cy="243.938" rx="5.25" ry="5" transform="rotate(12.6083 256.054 243.938)" fill="#81A1C1"/>
<ellipse cx="255.854" cy="244.058" rx="3.04839" ry="2.90323" transform="rotate(12.6083 255.854 244.058)" fill="#637F9A" fill-opacity="0.5"/>
<ellipse cx="322.022" cy="228.465" rx="5.25" ry="5" transform="rotate(12.6083 322.022 228.465)" fill="#88C0D0"/>
<ellipse cx="321.822" cy="228.585" rx="3.04839" ry="2.90323" transform="rotate(12.6083 321.822 228.585)" fill="#6A9AA8" fill-opacity="0.5"/>
<circle cx="313.663" cy="136.42" r="3.5" transform="rotate(12.6083 313.663 136.42)" fill="#88C0D0"/>
<circle cx="313.528" cy="136.506" r="2.03226" transform="rotate(12.6083 313.528 136.506)" fill="#6A9AA8" fill-opacity="0.5"/>
<circle cx="245.03" cy="117.994" r="3.5" transform="rotate(12.6083 245.03 117.994)" fill="#81A1C1"/>
<circle cx="244.895" cy="118.08" r="2.03226" transform="rotate(12.6083 244.895 118.08)" fill="#637F9A" fill-opacity="0.5"/>
<circle cx="154.356" cy="154.584" r="3.5" transform="rotate(12.6083 154.356 154.584)" fill="#788EA9"/>
<circle cx="154.222" cy="154.669" r="2.03226" transform="rotate(12.6083 154.222 154.669)" fill="#476385" fill-opacity="0.5"/>
<circle cx="197.783" cy="164.298" r="3.5" transform="rotate(12.6083 197.783 164.298)" fill="#81A1C1"/>
<circle cx="197.648" cy="164.383" r="2.03226" transform="rotate(12.6083 197.648 164.383)" fill="#637F9A" fill-opacity="0.5"/>
<circle cx="157.079" cy="185.934" r="3.5" transform="rotate(12.6083 157.079 185.934)" fill="#81A1C1"/>
<circle cx="156.944" cy="186.02" r="2.03226" transform="rotate(12.6083 156.944 186.02)" fill="#637F9A" fill-opacity="0.5"/>
<circle cx="294.46" cy="178.749" r="3.5" transform="rotate(12.6083 294.46 178.749)" fill="#88C0D0"/>
<circle cx="294.325" cy="178.835" r="2.03226" transform="rotate(12.6083 294.325 178.835)" fill="#6A9AA8" fill-opacity="0.5"/>
<circle cx="275.36" cy="147.322" r="3.5" transform="rotate(12.6083 275.36 147.322)" fill="#88C0D0"/>
<circle cx="275.225" cy="147.408" r="2.03226" transform="rotate(12.6083 275.225 147.408)" fill="#6A9AA8" fill-opacity="0.5"/>
<circle cx="326.613" cy="106.014" r="3.5" transform="rotate(12.6083 326.613 106.014)" fill="#81A1C1"/>
<circle cx="326.478" cy="106.099" r="2.03226" transform="rotate(12.6083 326.478 106.099)" fill="#637F9A" fill-opacity="0.5"/>
<circle cx="472.912" cy="81.8662" r="3.5" transform="rotate(12.6083 472.912 81.8662)" fill="#81A1C1"/>
<circle cx="472.777" cy="81.9518" r="2.03226" transform="rotate(12.6083 472.777 81.9518)" fill="#637F9A" fill-opacity="0.5"/>
<circle cx="490.567" cy="99.1367" r="3.5" transform="rotate(12.6083 490.567 99.1367)" fill="#88C0D0"/>
<circle cx="490.432" cy="99.2223" r="2.03226" transform="rotate(12.6083 490.432 99.2223)" fill="#6A9AA8" fill-opacity="0.5"/>
<circle cx="504.853" cy="122.314" r="3.5" transform="rotate(12.6083 504.853 122.314)" fill="#88C0D0"/>
<circle cx="504.718" cy="122.4" r="2.03226" transform="rotate(12.6083 504.718 122.4)" fill="#6A9AA8" fill-opacity="0.5"/>
<circle cx="528.306" cy="143.443" r="3.5" transform="rotate(12.6083 528.306 143.443)" fill="#88C0D0"/>
<circle cx="528.171" cy="143.529" r="2.03226" transform="rotate(12.6083 528.171 143.529)" fill="#6A9AA8" fill-opacity="0.5"/>
<circle cx="562.462" cy="151.083" r="3.5" transform="rotate(12.6083 562.462 151.083)" fill="#88C0D0"/>
<circle cx="562.327" cy="151.169" r="2.03226" transform="rotate(12.6083 562.327 151.169)" fill="#6A9AA8" fill-opacity="0.5"/>
<circle cx="607.436" cy="179.075" r="3.5" transform="rotate(12.6083 607.436 179.075)" fill="#81A1C1"/>
<circle cx="607.301" cy="179.161" r="2.03226" transform="rotate(12.6083 607.301 179.161)" fill="#637F9A" fill-opacity="0.5"/>
<circle cx="550.681" cy="199.171" r="3.5" transform="rotate(12.6083 550.681 199.171)" fill="#88C0D0"/>
<circle cx="550.546" cy="199.257" r="2.03226" transform="rotate(12.6083 550.546 199.257)" fill="#6A9AA8" fill-opacity="0.5"/>
<circle cx="501.264" cy="207.075" r="3.5" transform="rotate(12.6083 501.264 207.075)" fill="#88C0D0"/>
<circle cx="501.129" cy="207.16" r="2.03226" transform="rotate(12.6083 501.129 207.16)" fill="#6A9AA8" fill-opacity="0.5"/>
<circle cx="557.82" cy="96.2473" r="3.5" transform="rotate(12.6083 557.82 96.2473)" fill="#81A1C1"/>
<circle cx="557.685" cy="96.3329" r="2.03226" transform="rotate(12.6083 557.685 96.3329)" fill="#637F9A" fill-opacity="0.5"/>
<circle cx="682.528" cy="154.883" r="3.5" transform="rotate(12.6083 682.528 154.883)" fill="#788EA9"/>
<circle cx="682.393" cy="154.969" r="2.03226" transform="rotate(12.6083 682.393 154.969)" fill="#476385" fill-opacity="0.5"/>
<ellipse cx="174.112" cy="241.492" rx="5.25" ry="5" transform="rotate(12.6083 174.112 241.492)" fill="#788EA9"/>
<ellipse cx="173.911" cy="241.613" rx="3.04839" ry="2.90323" transform="rotate(12.6083 173.911 241.613)" fill="#476385" fill-opacity="0.5"/>
<ellipse cx="133.022" cy="189.263" rx="5.25" ry="5" transform="rotate(12.6083 133.022 189.263)" fill="#788EA9"/>
<ellipse cx="132.821" cy="189.384" rx="3.04839" ry="2.90323" transform="rotate(12.6083 132.821 189.384)" fill="#476385" fill-opacity="0.5"/>
<ellipse cx="112.336" cy="167.216" rx="5.25" ry="5" transform="rotate(12.6083 112.336 167.216)" fill="#788EA9"/>
<ellipse cx="112.135" cy="167.336" rx="3.04839" ry="2.90323" transform="rotate(12.6083 112.135 167.336)" fill="#476385" fill-opacity="0.5"/>
<ellipse cx="171.505" cy="166.105" rx="5.25" ry="5" transform="rotate(12.6083 171.505 166.105)" fill="#81A1C1"/>
<ellipse cx="171.304" cy="166.225" rx="3.04839" ry="2.90323" transform="rotate(12.6083 171.304 166.225)" fill="#637F9A" fill-opacity="0.5"/>
<ellipse cx="197.706" cy="200.145" rx="5.25" ry="5" transform="rotate(12.6083 197.706 200.145)" fill="#81A1C1"/>
<ellipse cx="197.506" cy="200.266" rx="3.04839" ry="2.90323" transform="rotate(12.6083 197.506 200.266)" fill="#637F9A" fill-opacity="0.5"/>
<ellipse cx="204.467" cy="213.442" rx="5.25" ry="5" transform="rotate(12.6083 204.467 213.442)" fill="#81A1C1"/>
<ellipse cx="204.266" cy="213.562" rx="3.04839" ry="2.90323" transform="rotate(12.6083 204.266 213.562)" fill="#637F9A" fill-opacity="0.5"/>
<ellipse cx="231.76" cy="242.603" rx="5.25" ry="5" transform="rotate(12.6083 231.76 242.603)" fill="#81A1C1"/>
<ellipse cx="231.559" cy="242.723" rx="3.04839" ry="2.90323" transform="rotate(12.6083 231.559 242.723)" fill="#637F9A" fill-opacity="0.5"/>
<ellipse cx="249.236" cy="194.251" rx="5.25" ry="5" transform="rotate(12.6083 249.236 194.251)" fill="#88C0D0"/>
<ellipse cx="249.035" cy="194.372" rx="3.04839" ry="2.90323" transform="rotate(12.6083 249.035 194.372)" fill="#6A9AA8" fill-opacity="0.5"/>
<ellipse cx="253.197" cy="231.515" rx="5.25" ry="5" transform="rotate(12.6083 253.197 231.515)" fill="#81A1C1"/>
<ellipse cx="252.996" cy="231.635" rx="3.04839" ry="2.90323" transform="rotate(12.6083 252.996 231.635)" fill="#637F9A" fill-opacity="0.5"/>
<ellipse cx="222.135" cy="143.615" rx="5.25" ry="5" transform="rotate(12.6083 222.135 143.615)" fill="#81A1C1"/>
<ellipse cx="221.935" cy="143.735" rx="3.04839" ry="2.90323" transform="rotate(12.6083 221.935 143.735)" fill="#637F9A" fill-opacity="0.5"/>
<ellipse cx="230.539" cy="67.1039" rx="5.25" ry="5" transform="rotate(12.6083 230.539 67.1039)" fill="#788EA9"/>
<ellipse cx="230.338" cy="67.2243" rx="3.04839" ry="2.90323" transform="rotate(12.6083 230.338 67.2243)" fill="#476385" fill-opacity="0.5"/>
<ellipse cx="162.568" cy="80.0796" rx="5.25" ry="5" transform="rotate(12.6083 162.568 80.0796)" fill="#788EA9"/>
<ellipse cx="162.367" cy="80.2001" rx="3.04839" ry="2.90323" transform="rotate(12.6083 162.367 80.2001)" fill="#476385" fill-opacity="0.5"/>
<ellipse cx="95.5398" cy="116.322" rx="5.25" ry="5" transform="rotate(12.6083 95.5398 116.322)" fill="#788EA9"/>
<ellipse cx="95.3392" cy="116.443" rx="3.04839" ry="2.90323" transform="rotate(12.6083 95.3392 116.443)" fill="#476385" fill-opacity="0.5"/>
<ellipse cx="33.6291" cy="138.852" rx="5.25" ry="5" transform="rotate(12.6083 33.6291 138.852)" fill="#788EA9"/>
<ellipse cx="33.4285" cy="138.972" rx="3.04839" ry="2.90323" transform="rotate(12.6083 33.4285 138.972)" fill="#476385" fill-opacity="0.5"/>
<ellipse cx="7.53099" cy="225.75" rx="5.25" ry="5" transform="rotate(12.6083 7.53099 225.75)" fill="#788EA9"/>
<ellipse cx="7.3304" cy="225.871" rx="3.04839" ry="2.90323" transform="rotate(12.6083 7.3304 225.871)" fill="#476385" fill-opacity="0.5"/>
<ellipse cx="341.591" cy="79.135" rx="5.25" ry="5" transform="rotate(12.6083 341.591 79.135)" fill="#788EA9"/>
<ellipse cx="341.39" cy="79.2555" rx="3.04839" ry="2.90323" transform="rotate(12.6083 341.39 79.2555)" fill="#476385" fill-opacity="0.5"/>
<ellipse cx="705.198" cy="56.9706" rx="5.25" ry="5" transform="rotate(12.6083 705.198 56.9706)" fill="#788EA9"/>
<ellipse cx="704.997" cy="57.091" rx="3.04839" ry="2.90323" transform="rotate(12.6083 704.997 57.091)" fill="#476385" fill-opacity="0.5"/>
<ellipse cx="653.932" cy="107.498" rx="5.25" ry="5" transform="rotate(12.6083 653.932 107.498)" fill="#788EA9"/>
<ellipse cx="653.731" cy="107.619" rx="3.04839" ry="2.90323" transform="rotate(12.6083 653.731 107.619)" fill="#476385" fill-opacity="0.5"/>
<ellipse cx="622.838" cy="120.525" rx="5.25" ry="5" transform="rotate(12.6083 622.838 120.525)" fill="#81A1C1"/>
<ellipse cx="622.638" cy="120.646" rx="3.04839" ry="2.90323" transform="rotate(12.6083 622.638 120.646)" fill="#637F9A" fill-opacity="0.5"/>
<ellipse cx="630.087" cy="133.931" rx="5.25" ry="5" transform="rotate(12.6083 630.087 133.931)" fill="#81A1C1"/>
<ellipse cx="629.886" cy="134.051" rx="3.04839" ry="2.90323" transform="rotate(12.6083 629.886 134.051)" fill="#637F9A" fill-opacity="0.5"/>
<ellipse cx="635.673" cy="173.095" rx="5.25" ry="5" transform="rotate(12.6083 635.673 173.095)" fill="#81A1C1"/>
<ellipse cx="635.472" cy="173.215" rx="3.04839" ry="2.90323" transform="rotate(12.6083 635.472 173.215)" fill="#637F9A" fill-opacity="0.5"/>
<ellipse cx="665.899" cy="159.361" rx="5.25" ry="5" transform="rotate(12.6083 665.899 159.361)" fill="#81A1C1"/>
<ellipse cx="665.699" cy="159.482" rx="3.04839" ry="2.90323" transform="rotate(12.6083 665.699 159.482)" fill="#637F9A" fill-opacity="0.5"/>
<ellipse cx="702.559" cy="82.5105" rx="5.25" ry="5" transform="rotate(12.6083 702.559 82.5105)" fill="#788EA9"/>
<ellipse cx="702.358" cy="82.6309" rx="3.04839" ry="2.90323" transform="rotate(12.6083 702.358 82.6309)" fill="#476385" fill-opacity="0.5"/>
<ellipse cx="649.579" cy="78.8576" rx="5.25" ry="5" transform="rotate(12.6083 649.579 78.8576)" fill="#788EA9"/>
<ellipse cx="649.378" cy="78.978" rx="3.04839" ry="2.90323" transform="rotate(12.6083 649.378 78.978)" fill="#476385" fill-opacity="0.5"/>
<ellipse cx="757.472" cy="100.429" rx="5.25" ry="5" transform="rotate(12.6083 757.472 100.429)" fill="#788EA9"/>
<ellipse cx="757.271" cy="100.55" rx="3.04839" ry="2.90323" transform="rotate(12.6083 757.271 100.55)" fill="#476385" fill-opacity="0.5"/>
<ellipse cx="789.194" cy="102.914" rx="5.25" ry="5" transform="rotate(12.6083 789.194 102.914)" fill="#788EA9"/>
<ellipse cx="788.994" cy="103.034" rx="3.04839" ry="2.90323" transform="rotate(12.6083 788.994 103.034)" fill="#476385" fill-opacity="0.5"/>
<ellipse cx="768.893" cy="76.8539" rx="5.25" ry="5" transform="rotate(12.6083 768.893 76.8539)" fill="#788EA9"/>
<ellipse cx="768.693" cy="76.9743" rx="3.04839" ry="2.90323" transform="rotate(12.6083 768.693 76.9743)" fill="#476385" fill-opacity="0.5"/>
<circle cx="215.931" cy="276.72" r="7.75" transform="rotate(12.6083 215.931 276.72)" fill="#788EA9"/>
<circle cx="215.632" cy="276.909" r="4.5" transform="rotate(12.6083 215.632 276.909)" fill="#476385" fill-opacity="0.5"/>
<circle cx="146.322" cy="258.076" r="7.75" transform="rotate(12.6083 146.322 258.076)" fill="#788EA9"/>
<circle cx="146.023" cy="258.265" r="4.5" transform="rotate(12.6083 146.023 258.265)" fill="#476385" fill-opacity="0.5"/>
<circle cx="128.73" cy="233.647" r="7.75" transform="rotate(12.6083 128.73 233.647)" fill="#788EA9"/>
<circle cx="128.431" cy="233.836" r="4.5" transform="rotate(12.6083 128.431 233.836)" fill="#476385" fill-opacity="0.5"/>
<circle cx="60.5272" cy="178.94" r="7.75" transform="rotate(12.6083 60.5272 178.94)" fill="#788EA9"/>
<circle cx="60.2285" cy="179.129" r="4.5" transform="rotate(12.6083 60.2285 179.129)" fill="#476385" fill-opacity="0.5"/>
<circle cx="36.5411" cy="228.909" r="7.75" transform="rotate(12.6083 36.5411 228.909)" fill="#788EA9"/>
<circle cx="36.2425" cy="229.098" r="4.5" transform="rotate(12.6083 36.2425 229.098)" fill="#476385" fill-opacity="0.5"/>
<circle cx="167.412" cy="106.525" r="7.75" transform="rotate(12.6083 167.412 106.525)" fill="#788EA9"/>
<circle cx="167.113" cy="106.714" r="4.5" transform="rotate(12.6083 167.113 106.714)" fill="#476385" fill-opacity="0.5"/>
<circle cx="283.311" cy="64.8181" r="7.75" transform="rotate(12.6083 283.311 64.8181)" fill="#788EA9"/>
<circle cx="283.012" cy="65.0074" r="4.5" transform="rotate(12.6083 283.012 65.0074)" fill="#476385" fill-opacity="0.5"/>
<circle cx="210.883" cy="83.9701" r="7.75" transform="rotate(12.6083 210.883 83.9701)" fill="#788EA9"/>
<circle cx="210.585" cy="84.1595" r="4.5" transform="rotate(12.6083 210.585 84.1595)" fill="#476385" fill-opacity="0.5"/>
<circle cx="407.517" cy="54.6863" r="7.75" transform="rotate(12.6083 407.517 54.6863)" fill="#788EA9"/>
<circle cx="407.219" cy="54.8757" r="4.5" transform="rotate(12.6083 407.219 54.8757)" fill="#476385" fill-opacity="0.5"/>
<circle cx="501.228" cy="57.2026" r="7.75" transform="rotate(12.6083 501.228 57.2026)" fill="#788EA9"/>
<circle cx="500.929" cy="57.392" r="4.5" transform="rotate(12.6083 500.929 57.392)" fill="#476385" fill-opacity="0.5"/>
<circle cx="575.549" cy="79.975" r="7.75" transform="rotate(12.6083 575.549 79.975)" fill="#788EA9"/>
<circle cx="575.251" cy="80.1644" r="4.5" transform="rotate(12.6083 575.251 80.1644)" fill="#476385" fill-opacity="0.5"/>
<circle cx="598.296" cy="63.0318" r="7.75" transform="rotate(12.6083 598.296 63.0318)" fill="#788EA9"/>
<circle cx="597.998" cy="63.2212" r="4.5" transform="rotate(12.6083 597.998 63.2212)" fill="#476385" fill-opacity="0.5"/>
<circle cx="638.763" cy="56.2004" r="7.75" transform="rotate(12.6083 638.763 56.2004)" fill="#788EA9"/>
<circle cx="638.465" cy="56.3898" r="4.5" transform="rotate(12.6083 638.465 56.3898)" fill="#476385" fill-opacity="0.5"/>
<circle cx="92.5064" cy="152.79" r="7.75" transform="rotate(12.6083 92.5064 152.79)" fill="#788EA9"/>
<circle cx="92.2078" cy="152.979" r="4.5" transform="rotate(12.6083 92.2078 152.979)" fill="#476385" fill-opacity="0.5"/>
<circle cx="517.389" cy="252.951" r="7.75" transform="rotate(12.6083 517.389 252.951)" fill="#788EA9"/>
<circle cx="517.09" cy="253.14" r="4.5" transform="rotate(12.6083 517.09 253.14)" fill="#476385" fill-opacity="0.5"/>
<circle cx="684.612" cy="236.045" r="7.75" transform="rotate(12.6083 684.612 236.045)" fill="#788EA9"/>
<circle cx="684.313" cy="236.235" r="4.5" transform="rotate(12.6083 684.313 236.235)" fill="#476385" fill-opacity="0.5"/>
<circle cx="727.473" cy="184.15" r="7.75" transform="rotate(12.6083 727.473 184.15)" fill="#788EA9"/>
<circle cx="727.175" cy="184.339" r="4.5" transform="rotate(12.6083 727.175 184.339)" fill="#476385" fill-opacity="0.5"/>
<circle cx="696.361" cy="211.006" r="7.75" transform="rotate(12.6083 696.361 211.006)" fill="#788EA9"/>
<circle cx="696.062" cy="211.196" r="4.5" transform="rotate(12.6083 696.062 211.196)" fill="#476385" fill-opacity="0.5"/>
<circle cx="797.596" cy="145.525" r="7.75" transform="rotate(12.6083 797.596 145.525)" fill="#788EA9"/>
<circle cx="797.297" cy="145.715" r="4.5" transform="rotate(12.6083 797.297 145.715)" fill="#476385" fill-opacity="0.5"/>
<circle cx="705.554" cy="112.641" r="7.75" transform="rotate(12.6083 705.554 112.641)" fill="#788EA9"/>
<circle cx="705.255" cy="112.83" r="4.5" transform="rotate(12.6083 705.255 112.83)" fill="#476385" fill-opacity="0.5"/>
<circle cx="737.264" cy="85.4059" r="7.75" transform="rotate(12.6083 737.264 85.4059)" fill="#788EA9"/>
<circle cx="736.965" cy="85.5953" r="4.5" transform="rotate(12.6083 736.965 85.5953)" fill="#476385" fill-opacity="0.5"/>
<circle cx="608.66" cy="254.921" r="7.75" transform="rotate(12.6083 608.66 254.921)" fill="#788EA9"/>
<circle cx="608.361" cy="255.111" r="4.5" transform="rotate(12.6083 608.361 255.111)" fill="#476385" fill-opacity="0.5"/>
<circle cx="393.561" cy="263.68" r="7.75" transform="rotate(12.6083 393.561 263.68)" fill="#788EA9"/>
<circle cx="393.262" cy="263.869" r="4.5" transform="rotate(12.6083 393.262 263.869)" fill="#476385" fill-opacity="0.5"/>
</svg>
