<svg width="1533" height="668" viewBox="0 0 1533 668" fill="none" xmlns="http://www.w3.org/2000/svg">
<path d="M1061 256.5H991M1061 256.5L1073.5 332.5M1061 256.5L1030 151.5M991 256.5L935.5 225.5L899 186.5L608 286.5L568.5 336.5M991 256.5L965 394M568.5 336.5L499.5 374M568.5 336.5L550 427.5M499.5 374L468.5 477L625 512M499.5 374L550 427.5M625 512L550 427.5M625 512L750 405L965 394M965 394L1061 356L1073.5 332.5M1073.5 332.5L1162.5 291M285 501.5L303.5 453.5L355 441.5L394 394L427.5 330L581 272.5L854.5 160.5L1030 151.5M285 501.5L368 512L390.5 533M285 501.5L266 442.5V343M390.5 533L492 551M390.5 533L455 579.5L502 571.5M492 551L677 575.5L1139 342.5L1162.5 291M492 551L502 571.5M1162.5 291L1213 266M1213 266L1265 225.5M1213 266L1073.5 172.5M1265 225.5L1184.5 195.5L1167.5 172.5H1073.5M1265 225.5L1293 234.5L1296 212M1265 225.5L1296 212M1073.5 172.5L1030 151.5M1017.5 477L900 551H781L635 645L581 619.5M1017.5 477L1038.5 500L1201 436V377M1017.5 477L1201 377M1201 377L1336.5 370.5L1350.5 315.5L1445 270.5L1397.5 248.5M1397.5 248.5L1520 145L1483 61L1432.5 20.5L1300.5 13.5L1167.5 40L1092 67.5M1397.5 248.5L1405 166.5M1092 67.5L942 46L896 69.5L713 134M1092 67.5L1201 79.5M713 134L478.5 211.5M713 134L900 100.5L1054.5 110.5L1201 79.5M478.5 211.5L375.5 240.5L346.5 277M478.5 211.5H599L736.5 160.5M346.5 277L249.5 291L266 343M346.5 277L266 343M266 343L133.5 394M266 343L236.5 518M133.5 394L25 464L10.5 645L68.5 638.5M133.5 394L191 486L236.5 518M133.5 394L144 464L94.5 529M68.5 638.5L249.5 607.5M68.5 638.5L94.5 529M249.5 607.5L294.5 645L439 655M249.5 607.5L94.5 529M249.5 607.5L343 603M439 655L581 619.5M439 655L343 603M581 619.5L502 571.5M236.5 518L343 603M1405 166.5L1323 117.5M1405 166.5L1419 74L1372.5 53M1323 117.5L1218 130.5M1323 117.5L1372.5 53M1218 130.5L1201 79.5M1218 130.5L1287 173.5L1296 212M1372.5 53L1304 61" stroke="#4C566A" stroke-opacity="0.56"/>
<ellipse cx="764.5" cy="356.5" rx="105.5" ry="102.5" fill="#8FBCBB"/>
<circle cx="778.5" cy="371.5" r="73.5" fill="#7CA6A5" fill-opacity="0.5"/>
<circle cx="580.5" cy="621.5" r="15.5" fill="#788EA9"/>
<circle cx="580" cy="622" r="9" fill="#476385" fill-opacity="0.5"/>
<ellipse cx="633.5" cy="643" rx="10.5" ry="10" fill="#788EA9"/>
<ellipse cx="633.161" cy="643.323" rx="6.09677" ry="5.80645" fill="#476385" fill-opacity="0.5"/>
<ellipse cx="898.5" cy="552" rx="10.5" ry="10" fill="#788EA9"/>
<ellipse cx="898.161" cy="552.323" rx="6.09677" ry="5.80645" fill="#476385" fill-opacity="0.5"/>
<ellipse cx="1036.5" cy="498" rx="10.5" ry="10" fill="#788EA9"/>
<ellipse cx="1036.16" cy="498.323" rx="6.09677" ry="5.80645" fill="#476385" fill-opacity="0.5"/>
<ellipse cx="1203.5" cy="374" rx="10.5" ry="10" fill="#788EA9"/>
<ellipse cx="1203.16" cy="374.323" rx="6.09677" ry="5.80645" fill="#476385" fill-opacity="0.5"/>
<ellipse cx="1138.5" cy="341" rx="10.5" ry="10" fill="#81A1C1"/>
<ellipse cx="1138.16" cy="341.323" rx="6.09677" ry="5.80645" fill="#637F9A" fill-opacity="0.5"/>
<ellipse cx="1073.5" cy="331" rx="10.5" ry="10" fill="#88C0D0"/>
<ellipse cx="1073.16" cy="331.323" rx="6.09677" ry="5.80645" fill="#6A9AA8" fill-opacity="0.5"/>
<ellipse cx="1072.5" cy="171" rx="10.5" ry="10" fill="#81A1C1"/>
<ellipse cx="1072.16" cy="171.323" rx="6.09677" ry="5.80645" fill="#637F9A" fill-opacity="0.5"/>
<ellipse cx="1286.5" cy="174" rx="10.5" ry="10" fill="#788EA9"/>
<ellipse cx="1286.16" cy="174.323" rx="6.09677" ry="5.80645" fill="#476385" fill-opacity="0.5"/>
<ellipse cx="1292.5" cy="235" rx="10.5" ry="10" fill="#788EA9"/>
<ellipse cx="1292.16" cy="235.323" rx="6.09677" ry="5.80645" fill="#476385" fill-opacity="0.5"/>
<ellipse cx="1404.5" cy="165" rx="10.5" ry="10" fill="#788EA9"/>
<ellipse cx="1404.16" cy="165.323" rx="6.09677" ry="5.80645" fill="#476385" fill-opacity="0.5"/>
<ellipse cx="1444.5" cy="268" rx="10.5" ry="10" fill="#788EA9"/>
<ellipse cx="1444.16" cy="268.323" rx="6.09677" ry="5.80645" fill="#788EA9"/>
<ellipse cx="1444.16" cy="268.323" rx="6.09677" ry="5.80645" fill="#476385" fill-opacity="0.5"/>
<ellipse cx="607.5" cy="286" rx="10.5" ry="10" fill="#88C0D0"/>
<ellipse cx="607.161" cy="286.323" rx="6.09677" ry="5.80645" fill="#6A9AA8" fill-opacity="0.5"/>
<ellipse cx="896.5" cy="69" rx="10.5" ry="10" fill="#788EA9"/>
<ellipse cx="896.161" cy="69.3226" rx="6.09677" ry="5.80645" fill="#476385" fill-opacity="0.5"/>
<ellipse cx="938.5" cy="47" rx="10.5" ry="10" fill="#788EA9"/>
<ellipse cx="938.161" cy="47.3226" rx="6.09677" ry="5.80645" fill="#476385" fill-opacity="0.5"/>
<ellipse cx="735.5" cy="158" rx="10.5" ry="10" fill="#788EA9"/>
<ellipse cx="735.161" cy="158.323" rx="6.09677" ry="5.80645" fill="#476385" fill-opacity="0.5"/>
<ellipse cx="676.5" cy="574" rx="10.5" ry="10" fill="#81A1C1"/>
<ellipse cx="676.161" cy="574.323" rx="6.09677" ry="5.80645" fill="#637F9A" fill-opacity="0.5"/>
<ellipse cx="503.5" cy="571" rx="10.5" ry="10" fill="#81A1C1"/>
<ellipse cx="503.161" cy="571.323" rx="6.09677" ry="5.80645" fill="#637F9A" fill-opacity="0.5"/>
<ellipse cx="625.5" cy="512" rx="10.5" ry="10" fill="#88C0D0"/>
<ellipse cx="625.161" cy="512.323" rx="6.09677" ry="5.80645" fill="#6A9AA8" fill-opacity="0.5"/>
<circle cx="569" cy="336" r="7" fill="#88C0D0"/>
<circle cx="568.774" cy="336.226" r="4.06452" fill="#6A9AA8" fill-opacity="0.5"/>
<circle cx="427" cy="330" r="7" fill="#81A1C1"/>
<circle cx="426.774" cy="330.226" r="4.06452" fill="#637F9A" fill-opacity="0.5"/>
<circle cx="266" cy="441" r="7" fill="#788EA9"/>
<circle cx="265.774" cy="441.226" r="4.06452" fill="#476385" fill-opacity="0.5"/>
<circle cx="355" cy="441" r="7" fill="#81A1C1"/>
<circle cx="354.774" cy="441.226" r="4.06452" fill="#637F9A" fill-opacity="0.5"/>
<circle cx="285" cy="501" r="7" fill="#81A1C1"/>
<circle cx="284.774" cy="501.226" r="4.06452" fill="#637F9A" fill-opacity="0.5"/>
<circle cx="550" cy="427" r="7" fill="#88C0D0"/>
<circle cx="549.774" cy="427.226" r="4.06452" fill="#6A9AA8" fill-opacity="0.5"/>
<circle cx="499" cy="374" r="7" fill="#88C0D0"/>
<circle cx="498.774" cy="374.226" r="4.06452" fill="#6A9AA8" fill-opacity="0.5"/>
<circle cx="581" cy="271" r="7" fill="#81A1C1"/>
<circle cx="580.774" cy="271.226" r="4.06452" fill="#637F9A" fill-opacity="0.5"/>
<circle cx="856" cy="160" r="7" fill="#81A1C1"/>
<circle cx="855.774" cy="160.226" r="4.06452" fill="#637F9A" fill-opacity="0.5"/>
<circle cx="898" cy="186" r="7" fill="#88C0D0"/>
<circle cx="897.774" cy="186.226" r="4.06452" fill="#6A9AA8" fill-opacity="0.5"/>
<circle cx="936" cy="225" r="7" fill="#88C0D0"/>
<circle cx="935.774" cy="225.226" r="4.06452" fill="#6A9AA8" fill-opacity="0.5"/>
<circle cx="991" cy="256" r="7" fill="#88C0D0"/>
<circle cx="990.774" cy="256.226" r="4.06452" fill="#6A9AA8" fill-opacity="0.5"/>
<circle cx="1061" cy="256" r="7" fill="#88C0D0"/>
<circle cx="1060.77" cy="256.226" r="4.06452" fill="#6A9AA8" fill-opacity="0.5"/>
<circle cx="1161" cy="291" r="7" fill="#81A1C1"/>
<circle cx="1160.77" cy="291.226" r="4.06452" fill="#637F9A" fill-opacity="0.5"/>
<circle cx="1059" cy="355" r="7" fill="#88C0D0"/>
<circle cx="1058.77" cy="355.226" r="4.06452" fill="#6A9AA8" fill-opacity="0.5"/>
<circle cx="966" cy="392" r="7" fill="#88C0D0"/>
<circle cx="965.774" cy="392.226" r="4.06452" fill="#6A9AA8" fill-opacity="0.5"/>
<circle cx="1028" cy="151" r="7" fill="#81A1C1"/>
<circle cx="1027.77" cy="151.226" r="4.06452" fill="#637F9A" fill-opacity="0.5"/>
<circle cx="1297" cy="211" r="7" fill="#788EA9"/>
<circle cx="1296.77" cy="211.226" r="4.06452" fill="#476385" fill-opacity="0.5"/>
<ellipse cx="342.5" cy="602" rx="10.5" ry="10" fill="#788EA9"/>
<ellipse cx="342.161" cy="602.323" rx="6.09677" ry="5.80645" fill="#476385" fill-opacity="0.5"/>
<ellipse cx="239.5" cy="518" rx="10.5" ry="10" fill="#788EA9"/>
<ellipse cx="239.161" cy="518.323" rx="6.09677" ry="5.80645" fill="#476385" fill-opacity="0.5"/>
<ellipse cx="189.5" cy="484" rx="10.5" ry="10" fill="#788EA9"/>
<ellipse cx="189.161" cy="484.323" rx="6.09677" ry="5.80645" fill="#476385" fill-opacity="0.5"/>
<ellipse cx="304.5" cy="456" rx="10.5" ry="10" fill="#81A1C1"/>
<ellipse cx="304.161" cy="456.323" rx="6.09677" ry="5.80645" fill="#637F9A" fill-opacity="0.5"/>
<ellipse cx="370.5" cy="511" rx="10.5" ry="10" fill="#81A1C1"/>
<ellipse cx="370.161" cy="511.323" rx="6.09677" ry="5.80645" fill="#637F9A" fill-opacity="0.5"/>
<ellipse cx="389.5" cy="534" rx="10.5" ry="10" fill="#81A1C1"/>
<ellipse cx="389.161" cy="534.323" rx="6.09677" ry="5.80645" fill="#637F9A" fill-opacity="0.5"/>
<ellipse cx="455.5" cy="579" rx="10.5" ry="10" fill="#81A1C1"/>
<ellipse cx="455.161" cy="579.323" rx="6.09677" ry="5.80645" fill="#637F9A" fill-opacity="0.5"/>
<ellipse cx="468.5" cy="477" rx="10.5" ry="10" fill="#88C0D0"/>
<ellipse cx="468.161" cy="477.323" rx="6.09677" ry="5.80645" fill="#6A9AA8" fill-opacity="0.5"/>
<ellipse cx="492.5" cy="548" rx="10.5" ry="10" fill="#81A1C1"/>
<ellipse cx="492.161" cy="548.323" rx="6.09677" ry="5.80645" fill="#637F9A" fill-opacity="0.5"/>
<ellipse cx="393.5" cy="390" rx="10.5" ry="10" fill="#81A1C1"/>
<ellipse cx="393.161" cy="390.323" rx="6.09677" ry="5.80645" fill="#637F9A" fill-opacity="0.5"/>
<ellipse cx="376.5" cy="237" rx="10.5" ry="10" fill="#788EA9"/>
<ellipse cx="376.161" cy="237.323" rx="6.09677" ry="5.80645" fill="#476385" fill-opacity="0.5"/>
<ellipse cx="249.5" cy="292" rx="10.5" ry="10" fill="#788EA9"/>
<ellipse cx="249.161" cy="292.323" rx="6.09677" ry="5.80645" fill="#476385" fill-opacity="0.5"/>
<ellipse cx="134.5" cy="392" rx="10.5" ry="10" fill="#788EA9"/>
<ellipse cx="134.161" cy="392.323" rx="6.09677" ry="5.80645" fill="#476385" fill-opacity="0.5"/>
<ellipse cx="23.5" cy="463" rx="10.5" ry="10" fill="#788EA9"/>
<ellipse cx="23.1614" cy="463.323" rx="6.09677" ry="5.80645" fill="#476385" fill-opacity="0.5"/>
<ellipse cx="10.5" cy="644" rx="10.5" ry="10" fill="#788EA9"/>
<ellipse cx="10.1613" cy="644.323" rx="6.09677" ry="5.80645" fill="#476385" fill-opacity="0.5"/>
<ellipse cx="598.5" cy="212" rx="10.5" ry="10" fill="#788EA9"/>
<ellipse cx="598.161" cy="212.323" rx="6.09677" ry="5.80645" fill="#476385" fill-opacity="0.5"/>
<ellipse cx="1298.5" cy="10" rx="10.5" ry="10" fill="#788EA9"/>
<ellipse cx="1298.16" cy="10.3226" rx="6.09677" ry="5.80645" fill="#476385" fill-opacity="0.5"/>
<ellipse cx="1220.5" cy="131" rx="10.5" ry="10" fill="#788EA9"/>
<ellipse cx="1220.16" cy="131.323" rx="6.09677" ry="5.80645" fill="#476385" fill-opacity="0.5"/>
<ellipse cx="1165.5" cy="170" rx="10.5" ry="10" fill="#81A1C1"/>
<ellipse cx="1165.16" cy="170.323" rx="6.09677" ry="5.80645" fill="#637F9A" fill-opacity="0.5"/>
<ellipse cx="1185.5" cy="193" rx="10.5" ry="10" fill="#81A1C1"/>
<ellipse cx="1185.16" cy="193.323" rx="6.09677" ry="5.80645" fill="#637F9A" fill-opacity="0.5"/>
<ellipse cx="1213.5" cy="267" rx="10.5" ry="10" fill="#81A1C1"/>
<ellipse cx="1213.16" cy="267.323" rx="6.09677" ry="5.80645" fill="#637F9A" fill-opacity="0.5"/>
<ellipse cx="1266.5" cy="227" rx="10.5" ry="10" fill="#81A1C1"/>
<ellipse cx="1266.16" cy="227.323" rx="6.09677" ry="5.80645" fill="#637F9A" fill-opacity="0.5"/>
<ellipse cx="1304.5" cy="61" rx="10.5" ry="10" fill="#788EA9"/>
<ellipse cx="1304.16" cy="61.3226" rx="6.09677" ry="5.80645" fill="#476385" fill-opacity="0.5"/>
<ellipse cx="1199.5" cy="77" rx="10.5" ry="10" fill="#788EA9"/>
<ellipse cx="1199.16" cy="77.3226" rx="6.09677" ry="5.80645" fill="#476385" fill-opacity="0.5"/>
<ellipse cx="1419.5" cy="72" rx="10.5" ry="10" fill="#788EA9"/>
<ellipse cx="1419.16" cy="72.3226" rx="6.09677" ry="5.80645" fill="#476385" fill-opacity="0.5"/>
<ellipse cx="1482.5" cy="63" rx="10.5" ry="10" fill="#788EA9"/>
<ellipse cx="1482.16" cy="63.3226" rx="6.09677" ry="5.80645" fill="#476385" fill-opacity="0.5"/>
<ellipse cx="1431.5" cy="21" rx="10.5" ry="10" fill="#788EA9"/>
<ellipse cx="1431.16" cy="21.3226" rx="6.09677" ry="5.80645" fill="#476385" fill-opacity="0.5"/>
<circle cx="439.5" cy="652.5" r="15.5" fill="#788EA9"/>
<circle cx="439" cy="653" r="9" fill="#476385" fill-opacity="0.5"/>
<circle cx="295.5" cy="646.5" r="15.5" fill="#788EA9"/>
<circle cx="295" cy="647" r="9" fill="#476385" fill-opacity="0.5"/>
<circle cx="250.5" cy="606.5" r="15.5" fill="#788EA9"/>
<circle cx="250" cy="607" r="9" fill="#476385" fill-opacity="0.5"/>
<circle cx="93.5" cy="529.5" r="15.5" fill="#788EA9"/>
<circle cx="93" cy="530" r="9" fill="#476385" fill-opacity="0.5"/>
<circle cx="68.5" cy="637.5" r="15.5" fill="#788EA9"/>
<circle cx="68" cy="638" r="9" fill="#476385" fill-opacity="0.5"/>
<circle cx="270.5" cy="341.5" r="15.5" fill="#788EA9"/>
<circle cx="270" cy="342" r="9" fill="#476385" fill-opacity="0.5"/>
<circle cx="478.5" cy="209.5" r="15.5" fill="#788EA9"/>
<circle cx="478" cy="210" r="9" fill="#476385" fill-opacity="0.5"/>
<circle cx="345.5" cy="278.5" r="15.5" fill="#788EA9"/>
<circle cx="345" cy="279" r="9" fill="#476385" fill-opacity="0.5"/>
<circle cx="716.5" cy="135.5" r="15.5" fill="#788EA9"/>
<circle cx="716" cy="136" r="9" fill="#476385" fill-opacity="0.5"/>
<circle cx="900.5" cy="99.5" r="15.5" fill="#788EA9"/>
<circle cx="900" cy="100" r="9" fill="#476385" fill-opacity="0.5"/>
<circle cx="1055.5" cy="111.5" r="15.5" fill="#788EA9"/>
<circle cx="1055" cy="112" r="9" fill="#476385" fill-opacity="0.5"/>
<circle cx="1092.5" cy="68.5" r="15.5" fill="#788EA9"/>
<circle cx="1092" cy="69" r="9" fill="#476385" fill-opacity="0.5"/>
<circle cx="1168.5" cy="37.5" r="15.5" fill="#788EA9"/>
<circle cx="1168" cy="38" r="9" fill="#476385" fill-opacity="0.5"/>
<circle cx="144.5" cy="464.5" r="15.5" fill="#788EA9"/>
<circle cx="144" cy="465" r="9" fill="#476385" fill-opacity="0.5"/>
<circle cx="1017.5" cy="474.5" r="15.5" fill="#788EA9"/>
<circle cx="1017" cy="475" r="9" fill="#476385" fill-opacity="0.5"/>
<circle cx="1336.5" cy="368.5" r="15.5" fill="#788EA9"/>
<circle cx="1336" cy="369" r="9" fill="#476385" fill-opacity="0.5"/>
<circle cx="1397.5" cy="248.5" r="15.5" fill="#788EA9"/>
<circle cx="1397" cy="249" r="9" fill="#476385" fill-opacity="0.5"/>
<circle cx="1348.5" cy="314.5" r="15.5" fill="#788EA9"/>
<circle cx="1348" cy="315" r="9" fill="#476385" fill-opacity="0.5"/>
<circle cx="1517.5" cy="142.5" r="15.5" fill="#788EA9"/>
<circle cx="1517" cy="143" r="9" fill="#476385" fill-opacity="0.5"/>
<circle cx="1323.5" cy="118.5" r="15.5" fill="#788EA9"/>
<circle cx="1323" cy="119" r="9" fill="#476385" fill-opacity="0.5"/>
<circle cx="1373.5" cy="51.5" r="15.5" fill="#788EA9"/>
<circle cx="1373" cy="52" r="9" fill="#476385" fill-opacity="0.5"/>
<circle cx="1196.5" cy="438.5" r="15.5" fill="#788EA9"/>
<circle cx="1196" cy="439" r="9" fill="#476385" fill-opacity="0.5"/>
<circle cx="780.5" cy="549.5" r="15.5" fill="#788EA9"/>
<circle cx="780" cy="550" r="9" fill="#476385" fill-opacity="0.5"/>
</svg>
